<svg width="40" height="40" viewBox="0 0 40 40" fill="none" xmlns="http://www.w3.org/2000/svg">
<circle cx="20" cy="20" r="20" fill="black"/>
<path d="M15.6133 28.2384C15.7481 28.3085 15.8995 28.3406 16.0512 28.3312C16.2028 28.3218 16.3491 28.2713 16.4742 28.185L27.3075 20.685C27.4182 20.6084 27.5087 20.506 27.5711 20.3867C27.6336 20.2674 27.6663 20.1347 27.6663 20C27.6663 19.8654 27.6336 19.7327 27.5711 19.6134C27.5087 19.4941 27.4182 19.3917 27.3075 19.315L16.4742 11.815C16.3492 11.7285 16.2028 11.6779 16.0511 11.6686C15.8994 11.6592 15.7479 11.6916 15.6133 11.7622C15.4786 11.8327 15.3658 11.9388 15.2871 12.0688C15.2084 12.1989 15.1667 12.348 15.1667 12.5V27.5C15.1666 27.6522 15.2083 27.8014 15.287 27.9315C15.3657 28.0617 15.4786 28.1678 15.6133 28.2384Z" fill="white"/>
</svg>
