<svg width="16" height="17" viewBox="0 0 16 17" fill="none" xmlns="http://www.w3.org/2000/svg">
<path d="M8 0.625C3.6875 0.625 0.1875 4.125 0.1875 8.4375C0.1875 12.75 3.6875 16.25 8 16.25C12.3125 16.25 15.8125 12.75 15.8125 8.4375C15.8125 4.125 12.3125 0.625 8 0.625ZM8 14.6875C4.5625 14.6875 1.75 11.875 1.75 8.4375C1.75 5 4.5625 2.1875 8 2.1875C11.4375 2.1875 14.25 5 14.25 8.4375C14.25 11.875 11.4375 14.6875 8 14.6875Z" fill="white" fill-opacity="0.75"/>
<path d="M5.9375 6.03125C6.21875 5.71875 6.5625 5.46875 6.96875 5.3125C7.375 5.125 7.78125 5.03125 8.21875 5.03125C8.75 5.03125 9.28125 5.15625 9.71875 5.4375C10.1562 5.6875 10.5625 6.0625 10.8437 6.46875L11.9688 5.625C11.5313 5.0625 11 4.5625 10.375 4.25C9.71875 3.90625 9.03125 3.75 8.25 3.75C7.625 3.75 7 3.875 6.4375 4.125C5.875 4.375 5.375 4.71875 4.96875 5.125C4.5625 5.5625 4.21875 6.03125 3.96875 6.625C3.71875 7.1875 3.59375 7.8125 3.59375 8.4375C3.59375 9.09375 3.71875 9.6875 3.96875 10.25C4.21875 10.8125 4.53125 11.3125 4.96875 11.75C5.375 12.1875 5.875 12.5 6.4375 12.75C7 13 7.59375 13.125 8.25 13.125C9.03125 13.125 9.75 12.9688 10.375 12.625C11 12.2812 11.5625 11.8125 11.9688 11.25L10.8437 10.4062C10.5625 10.8437 10.1875 11.1875 9.71875 11.4375C9.25 11.6875 8.75 11.8125 8.21875 11.8125C7.78125 11.8125 7.375 11.7188 6.96875 11.5313C6.59375 11.3438 6.25 11.0937 5.9375 10.8125C5.65625 10.5 5.40625 10.1562 5.25 9.75C5.09375 9.34375 5 8.90625 5 8.4375C5 7.96875 5.09375 7.53125 5.25 7.125C5.40625 6.71875 5.65625 6.34375 5.9375 6.03125Z" fill="white" fill-opacity="0.75"/>
</svg>
