<svg width="500" height="326" viewBox="0 0 500 326" fill="none" xmlns="http://www.w3.org/2000/svg">
<g clip-path="url(#clip0_30_119)">
<path d="M425.356 325.005C422.295 325.005 419.221 324.9 416.11 324.646C404.227 323.673 392.182 323.187 380.359 321.799C353.223 318.614 326.075 318.426 298.742 318.426C287.89 318.426 277.039 318.337 266.189 318.337C250.391 318.337 234.596 318.525 218.829 319.45C194.234 320.894 169.602 321.124 144.962 321.124C141.243 321.124 137.519 321.119 133.8 321.112C133.562 321.111 133.323 321.111 133.086 321.111C119.44 321.111 105.849 321.848 92.2243 322.369C78.5408 322.892 65.234 323.751 51.6297 323.751C50.4021 323.751 49.1714 323.744 47.9385 323.729C34.3445 323.565 13.6454 320.092 3.94701 311.24C-1.8109 305.981 -1.03025 293.328 4.73638 288.257C7.2554 286.042 11.3165 284.307 14.6341 283.251C24.0842 280.244 33.7008 280.237 43.5759 280.175C43.6968 280.174 43.8173 280.174 43.9386 280.174C50.7527 280.174 57.8374 281.378 64.3683 283.051C70.3095 284.574 76.3802 285.107 82.4234 286.055C87.3686 286.83 92.6594 287.202 97.8918 287.202C101.296 287.202 104.677 287.045 107.919 286.739C116.693 285.913 125.53 285.528 134.329 284.877C145.257 284.068 155.95 282.314 166.839 281.374C172.29 280.903 177.614 279.736 183.054 279.206C197.478 277.799 211.929 277.494 226.379 277.457C227.551 277.453 228.722 277.452 229.893 277.452C236.773 277.452 243.652 277.497 250.528 277.497C256.12 277.497 261.71 277.483 267.299 277.483C278.588 277.483 289.872 277.543 301.144 277.905L303.358 303.073L311.214 303.193L311.2 304.137L311.245 304.138L315.198 278.53C317.842 278.684 320.484 278.859 323.126 279.06L324.651 304.342L324.696 304.343L324.71 303.398L332.605 303.519L336.391 279.752C338.34 279.893 340.285 280.111 342.224 280.484C348.076 281.61 353.984 282.638 359.98 282.838C365.109 283.01 370.253 283.067 375.404 283.067C384.567 283.067 393.746 282.888 402.878 282.858C403.793 282.856 405.067 282.851 406.649 282.851C427.091 282.851 498.288 283.675 493.182 300.336C491.218 306.739 479.806 315.072 473.405 317.755C465.319 321.143 456.478 323.148 447.578 323.823C440.076 324.393 432.763 325.005 425.356 325.005Z" fill="#F3F094"/>
<path d="M237.1 82.0381C236.981 82.1172 236.867 82.2053 236.762 82.3046C235.783 83.2315 236.155 84.5255 235.545 85.5562C235.273 86.016 233.766 86.5468 234.314 87.2421C234.519 87.4975 235.134 88.4153 235.808 89.2976C236.791 90.584 236.64 92.3042 236.63 93.8086C236.616 95.8312 236.602 97.8534 236.587 99.8761C236.575 101.636 236.562 103.405 236.262 105.139C235.538 109.323 233.25 112.613 231.21 116.173C229.048 119.949 226.707 123.866 225.101 127.916C224.532 129.348 224.074 130.882 224.259 132.411C224.72 136.245 228.281 136.717 230.902 134.526C232.003 133.606 232.855 132.429 233.649 131.234C235.79 128.016 237.601 124.577 239.044 120.99C239.716 119.319 240.309 117.616 240.901 115.913C242.427 111.525 243.206 107.415 243.4 102.776C243.307 100.598 242.978 98.4427 242.699 96.2843C242.528 94.966 241.562 92.0848 242.774 91.1148C242.974 90.9553 243.208 90.8398 243.384 90.655C243.582 90.4469 243.687 90.1692 243.779 89.8968C244.117 88.8989 244.383 87.8494 244.48 86.7967C244.653 84.9156 242.356 83.0463 241.146 81.9073C240.845 81.6237 240.524 81.34 240.129 81.2151C239.488 81.0119 238.801 81.2663 238.176 81.518C237.807 81.6664 237.43 81.8196 237.1 82.0381Z" fill="#D39689"/>
<path d="M239.736 130.222C242.294 124.045 243.97 117.541 244.74 111.264C242.154 110.379 239.568 109.493 236.982 108.608C236.629 108.487 236.24 108.366 235.894 108.506C235.611 108.619 235.421 108.884 235.249 109.137C233.018 112.424 231.077 116.015 228.196 118.801C226.164 120.766 224.062 122.459 222.096 124.523C218.883 127.897 215.531 131.156 212.39 134.596C209.571 137.683 206.673 140.903 205.401 144.886C202.685 153.388 211.676 160.955 219.448 155.969C228.634 150.075 235.433 140.613 239.736 130.222Z" fill="#E76C13"/>
<path d="M366.157 175.055L370.11 176.697L373.54 175.172L374.234 175.748L373.576 176.638L376.787 176.202L379.029 177.618L379.272 181.165L377.252 184.195L373.758 184.039L370.234 181.768L364.729 179.759L366.157 175.055Z" fill="#BF7D6D"/>
<path d="M369.057 174.178L350.067 156.915L335.59 122.866L323.765 124.837L332.372 151.326L343.467 173.972L368.74 183.058L369.057 174.178Z" fill="#FFF500"/>
<path d="M151.67 64.5102L145.166 67.3123C142.063 68.649 140.632 72.248 141.969 75.3503L152.781 100.443C154.117 103.546 157.716 104.977 160.819 103.641L167.322 100.838L151.67 64.5102Z" fill="#FFF500"/>
<path d="M332.239 8.24537C271.582 -7.66123 195.312 28.2036 195.312 28.2036L195.295 28.164L145.292 49.7084L173.7 115.64L223.703 94.0958L223.686 94.0562C223.686 94.0562 302.138 63.2566 332.239 8.24537Z" fill="#9D9999"/>
<path d="M195.295 28.164C195.295 28.164 175.432 1.16245 132.37 19.7165L110.839 28.9933L115.041 38.7456C115.041 38.7456 147.549 26.4825 155.636 45.2518L195.295 28.164Z" fill="#FFF500"/>
<path d="M223.703 94.0958C223.703 94.0958 229.684 127.078 186.623 145.632L165.092 154.909L160.89 145.157C160.89 145.157 192.13 129.953 184.043 111.184L223.703 94.0958Z" fill="#FFF500"/>
<path d="M245.364 71.8457C233.174 77.0978 219.034 71.4735 213.783 59.2841C208.531 47.0947 214.154 32.9554 226.344 27.7033C238.534 22.4511 252.673 28.075 257.925 40.2644C263.177 52.4543 257.553 66.5935 245.364 71.8457Z" fill="#423E3E"/>
<path d="M243.075 66.5342C233.819 70.5225 223.082 66.252 219.094 56.9958C215.106 47.7393 219.376 37.0026 228.633 33.0144C237.889 29.0266 248.625 33.2971 252.614 42.5532C256.602 51.8093 252.331 62.546 243.075 66.5342Z" fill="#FFF500"/>
<path d="M197.594 105.345L169.187 39.4132L176.492 36.2655L204.9 102.197L197.594 105.345Z" fill="#423E3E"/>
<path d="M152.781 100.443L147.375 87.8971L141.969 75.3503C141.969 75.3503 111.061 73.4081 98.4932 108.958C132.963 124.241 152.781 100.443 152.781 100.443Z" fill="#F49A59"/>
<path d="M150.992 96.2933L147.375 87.8971L143.757 79.5008C143.757 79.5008 123.073 78.2009 114.663 101.991C137.73 112.219 150.992 96.2933 150.992 96.2933Z" fill="#E76C13"/>
<path d="M282.911 60.8506C301.695 47.1954 320.589 29.5372 332.239 8.2454C308.762 2.08844 282.951 3.69173 260.124 7.96538L282.911 60.8506Z" fill="#FFF500"/>
<path d="M223.703 94.0954L223.686 94.0562C223.686 94.0562 238.25 88.3348 257.232 77.4291C197.529 87.217 164.409 70.9405 149.788 60.1417L173.7 115.64L223.703 94.0954Z" fill="#32312F"/>
<path d="M184.999 76.1109L197.594 105.345L204.9 102.197L194.535 78.1407C191.183 77.5523 188.004 76.87 184.999 76.1109Z" fill="#DBDAD8"/>
<path d="M267.997 18.061L264.979 11.0564C264.979 11.0564 282.935 7.2758 301.697 7.2758C310.505 7.2758 319.486 8.10821 326.878 10.5552C326.878 10.5552 324.589 10.4338 320.719 10.4338C310.161 10.4338 287.825 11.3355 267.997 18.061Z" fill="#E76C13"/>
<path d="M249.518 61.8727C240.245 62.057 226.191 61.3522 217.807 52.5083C218.038 54.0194 218.461 55.526 219.094 56.9954C223.082 66.252 233.819 70.5225 243.075 66.5342C245.625 65.4357 247.793 63.823 249.518 61.8727Z" fill="#E76C13"/>
<path d="M152.781 100.443C154.118 103.546 157.716 104.977 160.819 103.641L167.322 100.838V100.838C167.315 100.834 153.224 93.9511 141.481 73.2077C141.514 73.9264 141.667 74.6509 141.969 75.3503L152.781 100.443Z" fill="#E76C13"/>
<path d="M186.623 145.632C188.108 144.992 189.529 144.333 190.9 143.661C180.581 145.046 170.812 144.796 162.977 144.049C161.682 144.771 160.89 145.157 160.89 145.157L165.092 154.909L186.623 145.632Z" fill="#E76C13"/>
<path d="M324.528 303.27L324.478 306.585L332.912 310.963L337.227 306.778L333.042 302.464L332.494 302.456L332.343 303.389L324.528 303.27Z" fill="#292949"/>
<path d="M303.611 302.016L303.024 302.007L298.71 306.192L302.895 310.506L311.459 306.386L311.51 303.072L303.695 302.953L303.611 302.016Z" fill="#292949"/>
<path d="M305.633 177.171C306.837 171.527 307.792 166.315 307.915 163.483C308.286 154.965 309.786 126.835 309.786 126.835L315.152 116.149L316.112 116.172C316.043 116.163 315.974 116.154 315.906 116.145C316.131 116.175 315.828 114.062 315.751 113.875C311.23 113.652 305.363 116.114 302.456 119.625C300.306 122.223 299.002 125.419 297.731 128.559C294.153 137.4 292.466 145.616 290.606 154.943C289.42 160.889 288.318 166.809 287.431 172.717C286.449 179.26 285.728 185.787 285.448 192.284C285.418 193.001 285.245 195.008 285.128 197.408C284.885 202.432 284.889 209.159 286.967 209.442C287.356 209.495 287.735 209.325 288.08 209.161C290.778 207.878 292.914 206.183 295.298 204.71L295.824 178.487L305.633 177.171Z" fill="#FFF500"/>
<path d="M353.063 204.852C352.615 199.263 352.147 193.675 351.557 188.1C350.379 176.98 348.715 165.878 345.777 155.086C344.655 150.962 343.35 146.894 342.045 142.826C340.456 137.874 338.868 132.921 337.279 127.969C335.304 121.813 331.88 117.446 325.801 115.211C324.716 114.811 323.571 114.499 322.391 114.265C322.36 114.391 322.332 114.519 322.313 114.654C322.234 115.241 322.058 115.891 321.686 116.312L325.697 116.412C325.697 116.412 336.4 156.802 336.711 163.739C336.828 166.376 337.267 172.137 337.759 178.205L343.89 179.219L343.801 202.4C344.143 202.506 344.484 202.608 344.822 202.705C346.764 203.261 348.328 204.73 349.931 205.888C352.298 207.598 353.337 208.277 353.063 204.852Z" fill="#FFF500"/>
<path d="M337.759 178.205C338.539 187.808 339.455 198.185 339.455 198.185C339.455 198.185 334.485 198.229 327.29 198.664C327.822 198.66 328.353 198.653 328.885 198.657C333.884 198.688 339.036 200.927 343.801 202.4L343.89 179.218L337.759 178.205Z" fill="#3A3C3F"/>
<path d="M303.857 201.224C300.427 201.354 300.011 200.702 300.011 200.702C300.011 200.702 303.295 188.121 305.633 177.171L295.824 178.487L295.298 204.71C296.136 204.192 297.005 203.701 297.939 203.266C299.813 202.394 301.81 201.737 303.857 201.224Z" fill="#3A3C3F"/>
<path d="M343.801 202.4C339.036 200.927 333.884 198.688 328.884 198.657C328.353 198.654 327.822 198.66 327.29 198.664C326.845 198.691 326.391 198.72 325.929 198.75C322.575 198.968 318.806 199.271 314.87 199.688C314.676 199.708 314.483 199.728 314.289 199.749C309.247 200.767 305.977 201.145 303.857 201.225C301.81 201.737 299.813 202.394 297.939 203.266C297.005 203.701 296.136 204.192 295.298 204.71L295.188 210.171L303.358 303.073L311.214 303.193L311.2 304.137L311.245 304.138L320.83 242.053L320.871 241.702L324.651 304.342L324.696 304.343L324.71 303.398L332.605 303.519L343.679 233.998L343.801 202.4Z" fill="#292949"/>
<path d="M337.759 178.205C337.267 172.137 336.828 166.376 336.711 163.739C336.4 156.802 325.697 116.412 325.697 116.412L321.686 116.312C321.641 116.363 321.595 116.412 321.544 116.455C321.419 116.562 321.275 116.646 321.109 116.699C320.78 116.803 320.425 116.758 320.083 116.712C318.759 116.532 317.436 116.352 316.112 116.172L315.152 116.149L309.786 126.835C309.786 126.835 308.286 154.965 307.915 163.483C307.792 166.315 306.837 171.527 305.633 177.171C303.295 188.121 300.011 200.702 300.011 200.702C300.011 200.702 300.427 201.354 303.857 201.225C305.977 201.145 309.247 200.767 314.289 199.749C314.483 199.728 314.676 199.708 314.87 199.688C318.806 199.271 322.575 198.968 325.929 198.75C326.391 198.72 326.845 198.691 327.29 198.664C334.485 198.229 339.455 198.185 339.455 198.185C339.455 198.185 338.539 187.809 337.759 178.205Z" fill="#E6E6E6"/>
<path d="M328.195 89.6352C329.37 91.665 329.956 94.0131 330.09 96.363C330.126 96.9882 330.178 97.7092 330.68 98.0723C331.217 98.4607 330.762 99.3336 331.159 98.8001C331.556 98.2665 332.906 96.4142 332.958 95.7463C333.082 94.1821 333.057 92.6058 332.887 91.0452C332.738 89.6882 332.446 88.2719 331.557 87.2467C331.03 86.639 330.333 86.2155 329.645 85.8052C328.649 85.2101 327.623 84.61 326.485 84.4091C324.524 84.0621 323.334 84.7898 325.079 86.1558C326.329 87.1347 327.39 88.244 328.195 89.6352Z" fill="#292949"/>
<path d="M316.409 116.465C319.104 116.688 321.798 116.911 324.492 117.134C324.869 114.766 325.076 112.363 325.11 109.954C327.448 109.517 330.194 108.713 330.961 106.207C331.202 105.418 331.199 104.563 331.194 103.726C331.171 100.268 331.148 96.8088 331.125 93.3501C331.118 92.154 331.103 90.9216 330.685 89.8163C329.951 87.8773 328.139 86.7383 326.368 86.029C321.848 84.2189 316.611 84.3565 312.499 87.0578C311.405 87.777 310.376 88.6971 309.757 89.9368C308.802 91.848 308.958 94.1924 309.14 96.3823C309.309 98.4041 309.478 100.426 309.646 102.448C309.84 104.773 310.221 107.448 312.014 108.655C312.967 109.296 314.188 109.401 315.013 110.236C316.468 111.708 315.849 114.366 316.409 116.465Z" fill="#BF7D6D"/>
<path d="M323.584 107.309C322.374 108.159 321.03 108.22 319.663 107.82C319.082 107.65 319.314 106.66 319.896 106.83C321.028 107.161 322.093 107.14 323.099 106.433C323.606 106.077 324.088 106.955 323.584 107.309ZM332 102.337C331.952 101.696 331.651 99.8203 330.719 101.013C330.475 101.325 330.42 101.762 330.411 102.174C330.401 102.585 330.425 103.008 330.303 103.396C330.023 104.289 329.061 104.705 328.199 104.699C327.857 104.698 327.507 104.645 327.201 104.473C326.905 104.306 326.668 104.038 326.436 103.775C325.875 103.137 325.313 102.498 324.751 101.86C323.785 100.762 321.906 101.264 320.628 101.45C319.154 101.664 317.684 102.134 316.492 103.136C316.371 103.237 316.254 103.343 316.136 103.449C315.849 103.708 315.56 103.964 315.225 104.135C314.092 104.713 312.672 104.142 311.859 103.095C311.486 102.616 311.136 101.998 310.566 101.923C310.12 101.865 309.691 102.195 309.469 102.621C309.247 103.047 309.193 103.553 309.168 104.044C309.081 105.831 309.348 107.67 310.131 109.245C311.83 112.661 315.028 113.045 318.235 112.929C319.503 112.884 320.771 112.838 322.038 112.792C324.356 112.708 326.805 112.581 328.739 111.187C330.446 109.957 331.441 107.889 331.831 105.731C332.033 104.618 332.082 103.47 332 102.337Z" fill="#292949"/>
<path d="M332.225 83.5924C332.438 82.7514 332.592 81.8952 332.685 81.0322C331.904 81.3216 331.051 81.4061 330.229 81.2758C330.22 80.7786 330.211 80.2815 330.202 79.7844C330.193 79.3709 324.687 79.1475 324.239 79.1156C320.048 78.8171 316.216 78.5312 312.463 80.8609C309.256 82.8512 307.224 85.7899 306.78 89.5884C306.356 93.2175 307.588 97.9357 309.69 100.918C309.665 99.9534 309.087 97.6849 309.299 96.7653C309.423 95.8452 309.723 94.9552 310.142 94.1322C310.98 92.4889 312.293 91.0987 313.818 90.0995C316.25 88.5065 319.091 87.6453 321.934 87.2075C324.539 86.8066 327.715 86.4268 330.303 87.0992C331.547 87.4219 331.757 87.7357 332.49 86.4542C332.619 86.2286 333.633 83.5969 333.53 83.5964C333.095 83.5951 332.66 83.5937 332.225 83.5924Z" fill="#292949"/>
<path d="M276.496 175.362L276.542 179.642L279.294 182.195L279.037 183.059L277.96 182.805L279.624 185.585L279.204 188.204L276.039 189.823L272.458 189.158L271.227 185.884L271.928 181.751L271.61 175.9L276.496 175.362Z" fill="#BF7D6D"/>
<path d="M278.443 177.683L286.844 153.433L302.79 147.163L305.987 116.631L285.021 134.965L268.566 154.076L270.155 180.885L278.443 177.683Z" fill="#FFF500"/>
<path d="M390.214 110.009C390.305 110.133 390.398 110.261 390.448 110.401C390.915 111.701 390.379 112.659 390.471 114.034C390.513 114.647 391.894 115.414 390.867 116.182C390.488 116.465 389.459 117.03 388.645 117.626C387.457 118.497 386.477 120.317 385.967 121.907C383.959 128.151 383.708 134.769 383.664 141.322C383.661 141.696 383.664 142.086 383.834 142.418C384.139 143.014 384.861 143.237 385.505 143.416C388.495 144.245 391.407 145.352 394.192 146.719C396.677 147.938 399.118 149.414 400.834 151.585C402.551 153.757 403.435 156.75 402.52 159.362C401.835 161.318 400.151 162.895 398.154 163.45C393.201 164.827 388.541 158.937 385.206 156.057C382.05 153.333 379.086 150.389 376.342 147.25C376.003 146.862 375.659 146.458 375.5 145.968C375.331 145.447 375.387 144.882 375.448 144.337C376.221 137.315 377.609 130.402 379.145 123.481C379.567 121.579 380.935 120.141 381.31 118.378C381.549 117.254 380.928 116.2 380.918 115.089C380.909 113.99 381.177 112.544 381.573 111.52C382.355 109.5 384.514 108.916 386.351 108.22C386.808 108.047 387.116 107.928 387.571 107.985C388.311 108.077 388.827 108.584 389.357 109.068C389.671 109.355 389.963 109.668 390.214 110.009Z" fill="#D39689"/>
<path d="M383.887 159.769C380.517 156.845 377.619 153.351 375.128 149.719C374.528 148.843 373.949 147.913 373.767 146.867C373.616 146 373.749 145.112 373.882 144.242C374.652 139.179 375.424 134.116 376.195 129.053C376.305 128.33 376.513 127.481 377.198 127.227C377.611 127.074 378.07 127.198 378.493 127.323C387.57 130.004 382.817 130.437 385.639 137.092C388.276 143.307 392.702 142.036 397.003 138.742C399.819 136.585 403.575 136.228 407.111 135.952C408.135 135.872 409.23 135.807 410.123 136.315C411.035 136.834 411.538 137.842 411.955 138.805C415.461 146.905 416.466 156.067 414.797 164.735C414.658 165.452 414.474 166.217 413.931 166.705C413.385 167.195 412.604 167.295 411.875 167.366C405.944 167.939 399.808 167.998 394.205 165.973C390.349 164.579 386.926 162.405 383.887 159.769Z" fill="#E76C13"/>
<path d="M432.386 289.179L434.885 299.311L428.884 300.788L426.111 289.556L432.386 289.179Z" fill="#D39689"/>
<path d="M429.051 299.071L434.687 299.588L436.642 300.907L437.299 304.953L423.396 309.336C421.792 307.871 422.025 305.327 423.864 304.179L424.466 303.8L429.051 299.071Z" fill="#292949"/>
<path d="M472.286 243.986C474.767 242.866 477.095 240.921 479.621 240.047C479.963 242.05 480.368 244.041 480.745 246.037C477.765 247.835 474.659 249.339 471.306 250.313C471.634 248.216 472.12 246.103 472.286 243.986Z" fill="#D39689"/>
<path d="M480.911 245.905C480.705 245.667 480.682 245.662 480.466 245.08C479.936 243.639 478.516 239.639 479.783 238.236C479.99 238.008 480.116 238.199 480.327 238.274C483.905 239.537 486.561 241.145 489.559 243.606C490.845 244.659 492.117 246.016 492.373 247.715C492.485 248.461 492.238 249.074 492.018 249.699C491.69 250.62 491.281 251.437 490.809 252.252C490.634 252.549 490.499 252.875 490.103 252.889C489.308 252.919 488.831 252.052 488.602 251.324C488.368 250.595 488.215 249.696 487.654 249.121C487.402 248.863 487.06 248.725 486.773 248.598C484.66 247.661 482.543 247.768 480.911 245.905Z" fill="#292949"/>
<path d="M427.41 243.189C433.303 251.502 441.016 254.589 450.1 256.403C460.496 258.48 468.991 255.868 477.441 249.918C477.284 246.907 476.686 243.961 476.619 241.127C466.807 243.748 461.948 243.901 454.289 235.689C443.209 223.82 450.9 203.846 446.612 188.561C446.117 186.805 445.443 185.074 444.373 183.599C431.9 166.449 414.147 180.628 413.539 197.585C412.994 212.759 418.624 230.79 427.41 243.189Z" fill="#F49A59"/>
<path d="M440.265 187.784C439.011 182.298 437.114 177.168 435.154 173.377C426.592 174.884 417.254 178.035 409.283 181.671C401.493 185.224 396.808 188.185 398.804 197.063C402.476 213.399 399.322 228.77 400.204 245.086C400.716 254.567 405.37 262.076 410.388 269.804C416.131 278.647 421.398 287.799 426.156 297.208C428.988 296.535 431.815 295.861 434.642 295.187C434.521 281.961 430.341 269.163 427.59 256.225C425.679 247.234 424.475 237.86 425.814 228.698C427.293 218.627 433.352 221.094 438.09 214.354C442.692 207.801 442.432 197.261 440.265 187.784Z" fill="#F49A59"/>
<path d="M422.084 125.004C423.144 125.595 424.111 126.354 425.068 127.106C425.927 127.781 426.781 128.455 427.639 129.129C430.606 131.465 432.48 135.305 434.107 138.619C442.652 156.056 448.544 180.866 447.713 200.571C433.712 203.954 416.744 202.874 402.292 203.093C400.886 203.114 399.28 203.043 398.384 201.959C397.841 201.303 397.694 200.416 397.566 199.573C395.72 187.426 396.302 173.979 396.889 161.638C397.137 156.43 397.627 151.229 398.487 146.084C399.398 140.639 400.462 134.747 403.842 130.219C407.459 125.373 415.291 122.061 421.116 124.528C421.449 124.669 421.769 124.829 422.084 125.004Z" fill="#E76C13"/>
<path d="M420.926 127.792C420.931 126.101 420.936 124.41 420.942 122.719C421.261 122.502 421.562 122.27 421.836 122.03C427.176 117.352 434.022 95.5544 417.555 93.4113C402.605 91.466 406.346 111.056 410.39 118.847C411.082 120.18 411.923 121.411 413.046 122.419C413.813 123.108 413.936 122.937 413.981 123.864C414.026 124.762 413.298 125.895 413.239 126.858C413.177 127.885 413.424 128.974 414.129 129.722C414.561 130.181 415.135 130.485 415.73 130.693C416.676 131.023 417.731 131.124 418.676 130.792C419.799 130.397 420.922 129.004 420.926 127.792Z" fill="#FEE7DE"/>
<path d="M405.894 111.915C407.17 114.403 408.778 116.719 410.663 118.784C409.843 113.947 409.692 108.998 410.214 104.12C410.254 103.748 410.285 103.329 410.043 103.043C409.817 102.777 409.432 102.723 409.083 102.701C402.853 102.315 403.671 107.579 405.894 111.915Z" fill="#302D2B"/>
<path d="M422.852 116.813C424.03 118.027 426.093 117.338 427.468 116.361C433.132 112.347 435.613 104.379 433.231 97.8607C431.235 92.4063 423.5 89.2644 423.126 96.4552C422.992 99.0046 425.019 102.201 425.091 104.996C425.194 108.991 423.94 113.017 422.852 116.813Z" fill="#201F1E"/>
<path d="M402.685 90.3845C402.04 90.7607 401.384 91.1531 400.692 91.5531C399.258 92.3811 398.184 92.7501 396.476 92.0961C395.988 91.9087 392.543 89.5192 393.178 88.818C388.97 93.4679 393.791 98.5888 396.209 102.364C397.838 104.91 398.674 108.725 401.675 110.094C404.976 111.6 406.659 108.805 409.216 107.279C411.472 105.932 413.991 105.006 416.305 103.761C420.145 101.696 425.801 98.2324 423.634 93.0427C421.106 86.981 414.484 86.381 408.823 87.7348C406.404 88.3128 404.588 89.2765 402.685 90.3845Z" fill="#201F1E"/>
<path d="M469.531 124.349C469.378 124.354 469.221 124.361 469.081 124.407C467.769 124.845 467.346 125.858 466.209 126.635C465.701 126.981 464.245 126.368 464.276 127.651C464.285 128.125 464.479 129.281 464.514 130.291C464.564 131.762 463.737 133.658 462.802 135.041C461.036 137.66 453.363 142.708 454.936 146.459C458.635 155.271 467.337 137.859 468.456 136.522C469.194 135.639 470.403 135.477 471.284 134.798C472.151 134.126 473.122 133.021 473.684 132.077C474.79 130.214 473.913 128.155 473.324 126.281C473.18 125.815 473.082 125.499 472.758 125.176C472.228 124.652 471.508 124.559 470.803 124.442C470.38 124.372 469.953 124.336 469.531 124.349Z" fill="#D39689"/>
<path d="M442.62 165.29C450.877 159.975 458.936 153.955 465.8 147.073C463.669 144.779 460.964 140.9 457.26 141.629C451.686 142.726 448.76 149.21 442.032 146.544C436.121 144.204 434.292 136.193 428.606 133.353C428.021 133.06 427.361 132.826 426.722 132.975C426.273 133.08 425.886 133.366 425.54 133.669C415.426 140.846 426.502 157.697 429.572 165.271C430.368 167.234 431.514 169.482 433.608 169.776C434.957 169.965 436.251 169.247 437.415 168.542C439.15 167.488 440.89 166.404 442.62 165.29Z" fill="#E76C13"/>
<path d="M222.296 126.582C221.109 128.737 219.303 130.472 217.789 132.412C216.316 134.299 215.706 136.059 215.182 138.335C214.804 139.979 214.114 141.234 212.09 141.37C208.272 141.625 209.585 138.584 208.896 136.25C208.108 133.582 206.169 131.375 204.881 128.95C201.156 121.941 203.347 108.8 212.336 106.631C222.165 104.259 225.898 120.042 222.296 126.582Z" fill="#D39689"/>
<path d="M207.478 118.964C206.385 118.927 205.18 118.924 204.318 119.596C203.455 120.267 203.424 121.87 204.478 122.122C205.433 122.35 206.76 121.434 207.296 122.215C207.61 122.671 207.259 123.279 206.96 123.763C205.811 125.62 205.343 127.838 205.658 129.931C205.233 130.27 204.641 129.842 204.32 129.432C202.726 127.396 201.537 125.068 200.828 122.6C200.436 123.156 199.887 123.612 199.26 123.907C199.688 123.031 199.533 122.026 199.379 121.087C198.811 117.64 198.548 113.632 201.119 111.041C202.494 109.655 204.482 108.946 206.444 108.732C208.405 108.519 210.371 108.752 212.314 108.986C213.145 109.086 214.16 109.342 214.303 110.129C212.418 110.727 210.419 112.015 209.373 113.679C209.053 114.19 207.589 118.968 207.478 118.964Z" fill="#292949"/>
<path d="M211.951 111.117C211.881 111.16 211.812 111.204 211.744 111.248C210.867 111.817 210.033 112.527 209.008 112.733C207.531 113.028 206.029 112.215 204.568 112.602C202.935 113.034 201.746 114.859 200.5 115.9C198.457 117.606 195.993 118.788 193.399 119.371C192.074 119.668 190.714 119.811 189.356 119.787C188.74 119.775 187.912 119.831 187.325 119.625C186.54 119.349 186.595 118.987 187.469 118.777C190.213 118.118 191.334 114.416 191.317 111.906C191.304 109.925 190.778 107.816 191.666 106.044C192.343 104.691 193.629 104.062 194.88 103.352C196.259 102.569 197.666 102.912 199.189 102.6C200.778 102.274 202.137 101.143 203.747 100.949C205.448 100.744 207.068 101.612 208.721 102.062C210.087 102.435 211.529 102.524 212.93 102.324C214.185 102.144 215.428 101.734 216.692 101.84C218.556 101.996 220.185 103.288 221.16 104.884C222.54 107.141 223.263 110.882 222.51 113.663C222.627 113.231 221.271 111.536 220.994 111.172C220.408 110.404 219.686 109.672 218.718 109.482C216.527 109.054 213.824 109.958 211.951 111.117Z" fill="#292949"/>
<path d="M133.892 286.15C134.383 287.512 135.199 288.683 135.847 289.955C149.207 285.42 162.432 278.715 175.369 272.937C173.85 269.646 172.33 266.355 170.811 263.064C164.715 268.207 158.13 272.769 151.177 276.673C150.075 277.292 133.822 285.955 133.892 286.15Z" fill="#D39689"/>
<path d="M138.548 289.35C139.027 290.121 138.853 290.758 138.568 291.513C138.402 291.951 138.074 292.335 138.018 292.806C137.962 293.278 138.073 293.674 138.21 294.153C138.933 296.676 141.262 302.224 136.018 300.864C131.257 299.629 129.861 291.864 129.209 287.317C129.166 287.018 129.092 286.714 129.223 286.43C129.355 286.146 129.602 285.891 129.879 285.682C131.424 284.517 133.331 283.008 134.907 284.85C135.579 285.635 135.311 286.713 136.028 287.542C136.616 288.222 138.07 288.579 138.548 289.35Z" fill="#292949"/>
<path d="M180.347 216.812C179.411 220.022 180.215 222.76 180.812 226.747C181.335 230.243 181.549 233.785 181.452 237.319C181.369 240.35 181.042 243.431 179.839 246.215C177.893 250.722 174.067 253.032 170.906 256.498C168.265 259.395 165.619 261.973 162.477 264.43C155.756 269.684 148.608 274.349 141.63 279.246C143.622 282.924 144.751 284.132 146.743 287.809C147.094 288.457 158.92 285.978 159.688 285.824C162.285 285.302 164.832 284.526 167.279 283.512C171.975 281.567 176.585 278.841 181.028 276.405C191.269 270.79 200.032 262.49 206.142 252.533C210.107 246.071 212.949 238.996 215.772 231.96C217.167 228.482 218.936 224.965 219.91 221.345C220.546 218.978 222.111 215.759 221.398 213.332C220.781 211.096 219.268 209.651 217.194 208.241C211.645 204.47 204.501 198.134 197.323 199.835C193.504 200.74 191.929 203.053 189.207 205.446C186.302 208 183.678 210.405 181.689 213.79C181.055 214.869 180.625 215.861 180.347 216.812Z" fill="#292949"/>
<path d="M241.214 304.31C242.409 306.994 243.993 304.506 245.32 305.452C249.408 289.441 249.426 278.435 246.134 262.298C242.685 263.071 239.27 263.979 235.83 264.753C239.358 272.218 241.324 277.489 242.297 286.648C242.451 288.101 241.044 303.928 241.214 304.31Z" fill="#D39689"/>
<path d="M246.29 302.749C247.197 302.675 247.53 303.166 247.97 303.805C248.225 304.177 248.305 304.666 248.63 304.988C248.954 305.311 249.38 305.418 249.837 305.542C252.245 306.194 258.153 307.114 254.39 310.734C250.972 314.021 243.813 311.53 239.715 309.734C239.446 309.616 239.113 309.536 238.941 309.272C238.77 309.008 238.667 308.71 238.647 308.355C238.537 306.379 238.371 304.382 240.639 303.767C241.606 303.505 242.417 304.32 243.47 304.054C244.333 303.836 245.383 302.822 246.29 302.749Z" fill="#292949"/>
<path d="M214.212 237.517C218.731 240.892 223.249 244.267 227.767 247.642C229.256 248.754 230.775 249.898 231.796 251.449C232.725 252.86 233.184 254.519 233.612 256.153C235.969 265.133 237.809 274.25 239.123 283.44C239.445 285.691 239.735 287.947 239.994 290.206C240.216 292.144 239.345 294.562 240.879 295.748C242.646 297.114 248.372 296.956 250.638 297.323C251.659 285.064 252.68 272.805 253.701 260.546C253.883 258.36 254.064 256.141 253.658 253.985C253.288 252.016 252.443 250.173 251.605 248.353C243.573 230.905 234.012 214.891 222.348 199.57C221.858 198.926 221.347 198.268 220.646 197.865C219.669 197.303 218.478 197.317 217.352 197.346C213.073 197.459 206.486 196.376 202.59 198.201C197.58 200.549 193.679 203.875 190.374 208.316C188.172 211.276 189.572 216.895 191.597 219.743C192.92 221.604 194.78 223.001 196.609 224.367C202.476 228.751 208.344 233.133 214.212 237.517Z" fill="#292949"/>
<path d="M195.952 142.906C194.477 143.946 193.121 145.117 191.954 146.379C188.04 150.611 184.916 155.581 182.669 160.882C177.519 173.03 176.529 186.366 175.601 199.438C175.292 203.788 174.984 208.139 174.674 212.49C174.37 216.77 174.673 217.721 179.206 217.522C187.605 217.153 196.382 216.08 204.189 212.861C207.903 211.33 211.416 209.299 215.278 208.17C220.896 206.527 226.446 207.928 231.956 207.01C230.875 202.597 229.087 198.502 228.438 193.912C227.789 189.318 227.651 184.664 227.663 180.028C227.681 173.512 227.405 167.002 227.283 160.488C227.188 155.426 227.208 149.483 224.096 145.186C223.052 143.745 221.589 142.429 219.94 141.721C218.728 141.201 216.532 140.865 215.817 139.595C215.752 139.479 215.748 139.339 215.745 139.205C215.712 137.591 216.218 136.128 214.645 135.551C213.769 135.23 212.518 135.263 211.593 135.206C210.286 135.126 206.991 134.81 206.616 136.645C206.516 137.132 206.528 137.644 206.346 138.106C206.302 138.221 206.242 138.334 206.148 138.414C206.026 138.516 205.863 138.55 205.708 138.582C202.34 139.276 198.906 140.826 195.952 142.906Z" fill="#E76C13"/>
<path d="M265.537 105.693C265.393 105.695 265.25 105.708 265.108 105.735C263.784 105.987 263.398 107.277 262.328 107.814C261.85 108.054 260.296 107.688 260.381 108.569C260.416 108.894 260.438 109.999 260.528 111.105C260.661 112.719 259.606 114.085 258.784 115.346C257.681 117.041 256.577 118.735 255.473 120.43C254.512 121.905 253.545 123.386 252.357 124.684C249.488 127.815 245.786 129.348 242.147 131.243C238.287 133.254 234.202 135.286 230.663 137.828C229.412 138.727 228.198 139.77 227.527 141.157C225.846 144.633 228.588 146.953 231.977 146.524C233.4 146.344 234.753 145.813 236.066 145.237C239.607 143.685 242.988 141.768 246.139 139.528C247.607 138.484 249.025 137.37 250.443 136.257C254.097 133.387 256.973 130.349 259.64 126.549C260.738 124.666 261.625 122.674 262.556 120.707C263.124 119.505 263.867 116.559 265.411 116.397C265.665 116.37 265.924 116.4 266.172 116.339C266.451 116.27 266.689 116.093 266.914 115.914C267.737 115.257 268.528 114.517 269.178 113.684C270.339 112.193 269.416 109.38 269.012 107.768C268.912 107.366 268.795 106.954 268.531 106.636C268.1 106.118 267.384 105.962 266.723 105.836C266.332 105.762 265.932 105.687 265.537 105.693Z" fill="#D39689"/>
<path d="M240.72 146.76C241.852 146.108 242.966 145.426 244.045 144.69C248.055 141.954 251.556 138.476 254.317 134.483C253.108 131.662 251.645 128.95 249.954 126.389C238.957 131.156 227.84 133.528 216.358 136.587C212.318 137.663 208.141 138.808 204.92 141.473C198.984 146.384 200.822 156.427 208.572 158.163C217.95 160.264 229.003 153.125 236.921 148.856C238.194 148.17 239.468 147.483 240.72 146.76Z" fill="#E76C13"/>
<path d="M431.72 136.902C431.613 136.946 431.5 136.999 431.388 137.033C425.468 138.805 419.032 140.017 412.769 141C408.35 141.691 403.848 142.363 399.354 142.476C392.32 142.653 388.602 139.567 387.066 133.207C385.185 125.428 386.814 117.141 387.488 109.332C387.615 107.868 387.768 95.3013 389.091 95.0208C384.771 95.9346 382.557 91.3939 378.187 91.9985C377.344 92.114 376.457 92.274 375.537 92.4453C375.328 90.6523 374.585 88.8922 373.287 87.3963C369.58 82.9262 363.516 77.332 365.67 71.2272C366.707 70.3539 367.751 69.5021 368.744 68.635C372.308 65.5188 375.253 61.7472 377.536 57.6084C378.299 56.2231 379.138 54.9821 379.982 53.893C382.394 50.7759 384.849 48.8697 385.759 48.2148C385.65 49.28 385.847 50.3359 386.489 51.2389C387.878 53.1909 390.848 53.8423 392.976 52.9222C393.083 52.8745 393.184 52.8255 393.287 52.772C394.176 52.2978 393.779 51.9432 393.13 51.6883C392.437 51.4146 391.643 51.1175 391.405 50.3273C390.785 48.2606 396.324 47.7536 397.334 47.6075C407.272 46.1687 414.42 58.9376 416.878 61.5243C416.878 61.5243 416.127 66.1323 417.808 67.95C418.166 68.3393 418.392 68.6993 418.526 69.0324C418.156 69.6122 417.851 70.3093 417.642 71.1422L417.64 71.1454C414.193 72.136 417.841 76.3041 415.657 78.2184C414.819 78.9519 413.686 79.2108 412.805 79.89C412.639 80.019 412.476 80.1597 412.399 80.3548C412.27 80.6653 412.409 81.0352 412.647 81.2766C413.621 82.2677 415.087 82.3185 416.501 82.0061C416.794 86.5297 418.257 91.1409 422.052 94.6059C421.661 98.1725 420.671 103.653 416.505 104.576C415.903 104.708 415.283 104.807 414.741 105.098C412.039 106.561 415.254 110.131 417.036 110.545C419.704 111.165 422.708 110.485 425.581 110.069V110.068C426.228 109.975 426.565 110.9 425.01 112.296C420.889 116 416.407 121.371 417.758 127.42C418.751 131.874 422.304 134.715 426.376 136.06C428.084 136.625 429.882 136.801 431.72 136.902Z" fill="#E6E6E6"/>
<path d="M374.456 86.7333C370.605 82.0898 364.865 76.3729 367.102 70.0298C363.922 72.6993 360.248 75.4496 358.799 79.4068C357.183 83.8225 358.414 89.1246 362.578 91.6416C366.598 94.0715 372.122 93.0975 376.83 92.2116C376.614 90.348 375.805 88.2876 374.456 86.7333Z" fill="#9D9999"/>
<path d="M360.757 82.5513C360.625 81.6416 361.256 80.7975 362.165 80.6658C363.075 80.5341 363.919 81.1647 364.051 82.0745C364.183 82.9842 363.552 83.8283 362.642 83.96C361.733 84.0917 360.888 83.4611 360.757 82.5513Z" fill="#242528"/>
<path d="M386.444 38.6849C384.038 42.3415 381.146 45.6451 377.871 48.4899C379.109 51.7171 379.982 53.8931 379.982 53.8931C382.394 50.7755 384.849 48.8697 385.759 48.2148C385.955 46.287 387.152 44.325 388.517 43.1761C388.8 42.9384 389.099 42.7213 389.415 42.523C388.573 41.4227 387.56 40.1102 386.444 38.6849Z" fill="#FFF500"/>
<path d="M375.277 25.3008C372.809 22.6601 370.825 20.918 370.034 21.1184C369.076 21.3621 369.832 25.0082 371.275 29.7853C372.756 28.4818 374.103 27.0035 375.277 25.3008Z" fill="#9D9999"/>
<path d="M375.277 25.3008C374.103 27.0034 372.756 28.4817 371.275 29.7852C371.859 31.7202 372.555 33.8404 373.297 35.9966C375.454 34.1766 377.334 31.9872 378.836 29.3137C377.594 27.8574 376.387 26.4883 375.277 25.3008Z" fill="#FFF500"/>
<path d="M378.836 29.3137C377.334 31.9872 375.454 34.1766 373.297 35.9966C374.004 38.0502 374.751 40.1354 375.479 42.1221C378.299 39.8909 380.83 37.2929 382.969 34.3101C381.608 32.6237 380.202 30.9161 378.836 29.3137Z" fill="#FFF500"/>
<path d="M382.969 34.3102C380.83 37.2929 378.299 39.8909 375.479 42.1221C376.334 44.45 377.162 46.6425 377.871 48.4899C381.146 45.6451 384.038 42.3414 386.444 38.6849C385.363 37.3032 384.184 35.815 382.969 34.3102Z" fill="#F49A59"/>
<path d="M447.857 80.7727C447.771 80.432 447.524 80.1093 447.183 80.032C446.787 79.9435 446.405 80.1848 446.077 80.4141C444.495 81.5135 442.737 83.3972 440.647 82.5841C438.377 81.7005 437.294 78.7811 436.943 76.5724C436.296 72.4758 436.818 69.2706 434.602 65.7098C433.676 64.2238 431.276 61.9522 428.713 62.1944C430.48 62.0137 428.705 53.4602 428.26 52.2798C426.511 47.6655 421.845 44.3047 417.649 42.1099C409.009 37.594 397.818 37.2699 389.416 42.523C389.098 42.7212 388.8 42.9388 388.518 43.1761C387.152 44.325 385.955 46.2869 385.759 48.2148C385.65 49.28 385.847 50.3358 386.489 51.2388C387.878 53.1909 390.848 53.8418 392.976 52.9222C393.083 52.8745 393.184 52.8255 393.287 52.772C394.176 52.2978 393.779 51.9432 393.13 51.6883C392.437 51.4146 391.643 51.117 391.405 50.3273C390.785 48.2606 396.324 47.7536 397.334 47.6075C404.895 46.513 410.839 53.6395 414.333 58.2516C415.514 59.9219 418.944 65.8145 415.947 74.5614C414.95 77.4731 412.996 78.4053 411.97 79.3299C411.777 79.5052 411.587 79.6976 411.503 79.9686C411.359 80.3997 411.536 80.9224 411.826 81.2685C413.015 82.6884 414.759 82.8062 416.429 82.4129L416.536 82.3846C416.899 86.9917 418.376 91.6685 421.998 95.2572C421.567 98.8184 420.48 103.867 416.529 104.742C415.927 104.874 415.331 105.139 414.79 105.43C412.087 106.893 415.254 110.131 417.036 110.546C419.704 111.165 422.708 110.485 425.581 110.068C425.724 110.048 425.864 110.012 426.003 109.97C425.954 110.429 425.644 110.978 424.915 111.632C420.793 115.336 416.309 121.106 417.66 127.154C418.654 131.608 422.281 134.549 426.349 135.895C428.062 136.458 429.882 136.801 431.72 136.902C435.757 137.123 439.892 136.198 443.209 133.955C445.452 132.438 447.708 130.323 448.45 127.618C448.634 126.932 448.774 126.116 448.576 125.412C448.333 124.553 447.56 124.081 447.007 125.154C446.266 126.597 444.931 127.405 443.344 127.73C440.027 128.404 437.191 125.979 438.238 122.479C438.463 121.71 438.885 121.015 439.317 120.341C440.858 117.926 443.065 115.812 444.328 113.245C445.484 110.899 446.122 108.182 445.807 105.602C445.38 102.065 443.335 97.9114 439.443 97.1459C439.38 97.1333 439.312 97.1234 439.249 97.114C440.009 94.5965 440.112 91.8416 439.78 89.2418C442.656 89.3839 445.982 86.513 447.174 84.1326C447.619 83.2422 448.108 81.7818 447.857 80.7727Z" fill="#D67086"/>
<path d="M406.781 57.2726C404.95 57.1747 401.163 53.5968 401.553 51.8052C402.515 47.3864 406.646 41.095 406.267 38.4777C405.737 34.8171 412.426 35.7512 412.202 42.9711C411.979 50.1911 412.031 56.7243 408.95 57.1765C408.18 57.2897 407.447 57.3082 406.781 57.2726Z" fill="#423E3E"/>
<path d="M387.713 69.5858C387.926 71.0538 386.908 72.4161 385.44 72.6283C383.972 72.8409 382.61 71.8233 382.397 70.3553C382.185 68.8873 383.202 67.5249 384.67 67.3128C386.138 67.0997 387.501 68.1178 387.713 69.5858Z" fill="#242528"/>
<path d="M408.95 57.1765C412.031 56.7238 411.979 50.1911 412.202 42.9711C412.294 39.992 411.209 38.0858 409.94 37.1284C409.948 37.2151 411.455 54.2504 405.114 56.6142L405.77 56.9755C406.141 57.1499 406.486 57.2569 406.781 57.2726C407.447 57.3082 408.179 57.2897 408.95 57.1765Z" fill="#4F4E53"/>
<path d="M469.144 85.5274L478.511 103.099C478.664 103.388 478.952 103.583 479.28 103.62L499.115 105.886C499.938 105.98 500.293 106.972 499.718 107.566L485.847 121.879C485.617 122.115 485.519 122.447 485.586 122.768L489.546 142.271C489.712 143.079 488.876 143.724 488.13 143.363L470.191 134.638C469.895 134.494 469.549 134.505 469.261 134.666L451.875 144.453C451.156 144.858 450.279 144.265 450.396 143.448L453.179 123.743C453.228 123.418 453.111 123.093 452.868 122.871L438.157 109.417C437.55 108.859 437.847 107.848 438.66 107.704L458.325 104.25C458.649 104.193 458.923 103.982 459.058 103.684L467.355 85.5813C467.697 84.8316 468.758 84.7997 469.144 85.5274Z" fill="#FFF500"/>
<path d="M468.371 89.6747L460.959 105.106C460.568 105.915 459.795 106.471 458.9 106.579L441.856 108.648L459.939 108.947C461.085 108.965 462.114 108.241 462.483 107.156L468.371 89.6747Z" fill="#E76C13"/>
<path d="M450.715 141.181L450.396 143.448C450.279 144.265 451.156 144.858 451.875 144.453L469.261 134.666C469.549 134.505 469.895 134.494 470.191 134.638L488.13 143.363C488.876 143.724 489.712 143.079 489.546 142.271L485.586 122.768C485.519 122.447 485.617 122.115 485.847 121.879L499.718 107.566C500.293 106.972 499.938 105.98 499.115 105.886L492.472 105.127C482.35 124.586 466.267 135.154 450.715 141.181Z" fill="#E76C13"/>
<path d="M374.306 224.094H274.65V161.613C274.65 159.376 276.464 157.562 278.701 157.562H370.255C372.492 157.562 374.306 159.376 374.306 161.613V224.094Z" fill="#FFF500"/>
<path d="M278.623 220.421H370.359V162.171H278.623V220.421Z" fill="#4F4E53"/>
<path d="M374.297 232.691L274.64 232.392C272.214 232.385 269.967 231.115 268.711 229.041L380.245 229.373L380.245 229.374C378.976 231.441 376.722 232.698 374.297 232.691Z" fill="#242627"/>
<path d="M378.919 229.929H270.037C269.224 229.929 268.566 229.271 268.566 228.458V225.401C268.566 224.588 269.224 223.93 270.037 223.93H378.919C379.732 223.93 380.39 224.588 380.39 225.401V228.458C380.39 229.271 379.732 229.929 378.919 229.929Z" fill="#9D9999"/>
<path d="M332.696 227.815H316.26C315.705 227.815 315.254 227.365 315.254 226.81V226.699C315.254 226.144 315.705 225.693 316.26 225.693H332.696C333.251 225.693 333.701 226.144 333.701 226.699V226.81C333.701 227.365 333.251 227.815 332.696 227.815Z" fill="#2A2E30"/>
<path d="M278.915 214.204H369.561L370.068 187.142L356.068 166.709L342.709 189.998L326.887 177.215L306.673 196.605L294.044 188.822L278.915 205.481V214.204Z" fill="#F2F2F2"/>
<path d="M339.455 214.204L326.887 177.215L342.709 189.998L339.455 214.204Z" fill="#E9E9E9"/>
<path d="M39.4856 99.5278C39.5805 99.6397 39.6771 99.7561 39.7342 99.8856C40.2655 101.095 39.8187 102.044 39.998 103.348C40.078 103.93 41.4458 104.569 40.5172 105.37C40.1742 105.665 39.2317 106.271 38.4945 106.894C37.4203 107.802 36.6072 109.603 36.2255 111.152C34.7265 117.238 34.9257 123.563 35.3185 129.813C35.341 130.169 35.3697 130.54 35.5536 130.847C35.8835 131.394 36.5865 131.559 37.213 131.687C40.1176 132.279 42.9677 133.141 45.7131 134.259C48.1628 135.257 50.5877 136.501 52.3681 138.458C54.1481 140.414 55.1895 143.208 54.4906 145.759C53.9674 147.669 52.467 149.284 50.5999 149.946C45.9698 151.587 41.137 146.281 37.7668 143.758C34.5778 141.37 31.5559 138.76 28.7318 135.949C28.3835 135.603 28.0289 135.24 27.8446 134.784C27.6486 134.298 27.6652 133.756 27.6859 133.232C27.9574 126.487 28.8222 119.805 29.8272 113.105C30.1036 111.264 31.3123 109.802 31.5523 108.098C31.7056 107.009 31.0431 106.046 30.9608 104.988C30.8785 103.94 31.0386 102.545 31.3483 101.542C31.96 99.5646 33.9795 98.8644 35.6839 98.0791C36.1082 97.8836 36.3946 97.7501 36.8319 97.7739C37.543 97.813 38.0684 98.2616 38.606 98.6882C38.9242 98.9408 39.224 99.2199 39.4856 99.5278Z" fill="#D39689"/>
<path d="M36.7096 146.847C35.7006 145.886 34.7495 144.875 33.8662 143.817C31.2013 140.624 28.5359 137.431 25.8709 134.238C25.6327 133.953 25.3904 133.66 25.2605 133.312C25.0385 132.715 25.1783 132.052 25.3127 131.43C26.3469 126.646 26.9375 121.766 27.0751 116.874C30.092 118.139 33.4163 118.665 36.6764 118.392C36.6827 121.671 36.6894 124.951 36.6957 128.23C36.6966 128.602 36.7038 128.997 36.9038 129.311C37.0935 129.608 37.4239 129.78 37.7407 129.935C45.4259 133.674 53.8442 135.173 61.9892 137.616C65.9249 138.798 69.994 140.051 73.0761 142.769C79.6578 148.571 75.8925 159.49 66.8198 159.206C56.0992 158.87 44.6151 154.381 36.7096 146.847Z" fill="#FFF500"/>
<path d="M68.7584 293.14L68.8995 303.111L61.9861 303.189L61.8297 292.135L68.7584 293.14Z" fill="#D39689"/>
<path d="M62.5115 301.627L67.6504 303.326L69.1822 304.975L68.9229 308.883L55.0326 309.962C53.859 308.254 54.6223 305.936 56.5806 305.263L57.227 305.041L62.5115 301.627Z" fill="#292949"/>
<path d="M111.338 283.582L115.252 292.754L109.815 295.068L105.476 284.9L111.338 283.582Z" fill="#D39689"/>
<path d="M108.911 295.24C109.107 295.024 109.333 294.82 109.597 294.627C110.251 294.15 115.518 291.358 115.97 292.616C116.043 292.821 116.02 293.046 115.994 293.262C115.56 296.881 114.711 300.451 113.468 303.878C112.937 305.344 112.13 306.968 110.614 307.334C109.949 307.494 109.251 307.376 108.584 307.225C107.601 307.002 106.633 306.708 105.692 306.347C105.347 306.215 104.981 306.052 104.803 305.73C104.446 305.084 105.069 304.319 105.72 303.971C106.371 303.623 107.166 303.373 107.484 302.707C107.627 302.408 107.647 302.068 107.665 301.737C107.797 299.285 107.381 296.929 108.911 295.24Z" fill="#292949"/>
<path d="M73.2118 246.933C75.15 255.797 80.6916 262.165 86.6112 268.683C93.3849 276.142 99.7571 283.966 105.69 292.11C108.255 291.041 110.819 289.971 113.384 288.902C111.24 276.446 105.331 265.017 100.753 253.236C97.5709 245.049 94.9931 236.392 94.8533 227.545C94.7837 223.145 95.8498 219.121 96.4207 214.842C97.1277 209.541 97.1681 204.108 97.8073 198.783C98.0212 196.997 98.1431 194.885 96.7699 193.723C96.1586 193.206 95.3531 192.988 94.567 192.836C65.4057 187.189 69.5256 230.078 73.2118 246.933Z" fill="#F49A59"/>
<path d="M96.9681 200.451C96.9838 195.072 96.3271 189.889 95.3212 185.935C87.0256 185.491 77.6513 186.409 69.4474 188.074C61.4287 189.701 56.4278 191.446 56.3703 200.141C56.2637 216.14 50.0101 229.769 47.3101 245.148C45.741 254.085 48.4523 262.079 51.4566 270.356C54.8942 279.827 57.8216 289.483 60.2219 299.269C63.0001 299.253 65.7788 299.236 68.5574 299.219C71.2993 286.881 70.1684 274.065 70.4012 261.428C70.563 252.646 71.4624 243.658 74.6892 235.419C78.237 226.362 83.3457 229.967 89.2087 224.715C94.909 219.609 96.9411 209.74 96.9681 200.451Z" fill="#F49A59"/>
<path d="M87.5484 138.878C88.4644 139.588 89.2694 140.444 90.065 141.292C90.7774 142.052 91.4898 142.812 92.2027 143.572C94.6713 146.205 95.8907 150.103 96.9488 153.467C102.517 171.168 104.521 195.453 100.905 213.949C87.1901 215.134 71.3159 211.676 57.6315 209.807C56.3006 209.625 54.7935 209.327 54.1027 208.175C53.6842 207.477 53.6721 206.617 53.6721 205.803C53.6739 194.061 56.155 181.442 58.4824 169.867C59.4645 164.982 60.6745 160.139 62.2261 155.403C63.8685 150.389 65.7208 144.976 69.5647 141.183C73.6775 137.125 81.5528 135.121 86.7016 138.289C86.9955 138.47 87.2769 138.667 87.5484 138.878Z" fill="#FFF500"/>
<path d="M82.2351 138.016C82.1528 138.187 82.0404 138.352 81.889 138.509C81.2903 139.13 80.4484 139.496 79.6074 139.638C78.499 139.826 77.3632 139.67 76.2534 139.488C74.7544 139.241 74.785 138.367 74.5342 137.018C74.3971 136.281 74.304 135.537 74.2294 134.792C74.1885 134.383 74.3094 132.913 74.0411 132.633C73.859 132.443 73.1394 132.527 72.8194 132.37C72.3119 132.121 71.8813 131.65 71.5685 131.19C71.0642 130.448 70.7747 129.584 70.4915 128.733C69.9985 127.252 69.5058 125.771 69.0128 124.29C68.5089 122.777 68.0028 121.251 67.8126 119.667C67.5263 117.28 67.827 113.893 69.5881 112.097C71.195 110.459 73.584 109.839 75.781 109.501C78.69 109.053 81.7294 109.51 84.2901 110.995C85.3239 111.594 86.3096 112.381 86.9393 113.481C87.9097 115.177 87.894 117.326 87.8459 119.335C87.8014 121.191 87.7565 123.046 87.712 124.901C87.6607 127.034 87.458 129.497 85.8911 130.693C85.0592 131.328 83.9539 131.488 83.2486 132.293C82.365 133.302 82.4616 134.779 82.4553 136.029C82.4517 136.745 82.5227 137.419 82.2351 138.016Z" fill="#D39689"/>
<path d="M72.3838 114.302C72.2877 114.478 72.2085 114.66 72.1483 114.849C71.8332 115.84 72.0912 116.943 71.7842 117.937C71.2975 119.512 69.4991 120.497 69.2658 122.129C69.0752 123.464 70.0155 124.704 70.1266 126.047C70.2479 127.515 69.3422 128.931 69.5252 130.379C69.6843 131.636 70.5293 133.387 71.3078 134.378C71.0664 134.071 68.9593 134.236 68.4033 133.916C67.5515 133.425 67.4477 133.105 67.1757 132.237C66.9061 131.376 67.0759 130.515 66.6674 129.637C66.1658 128.558 65.172 127.782 64.8011 126.628C64.2955 125.053 65.0969 123.357 64.989 121.706C64.8254 119.208 62.6032 116.906 63.3273 114.509C63.7516 113.103 65.083 112.177 65.8125 110.902C66.3662 109.934 66.551 108.805 66.9254 107.754C67.2998 106.703 67.9632 105.645 69.0244 105.302C69.6142 105.111 70.2551 105.167 70.861 105.038C71.9092 104.815 72.765 104.066 73.7709 103.697C75.2093 103.169 77.8068 104.571 78.6851 105.779C79.5571 106.978 79.1593 108.027 78.3273 109.128C76.942 110.963 73.5129 112.227 72.3838 114.302Z" fill="#292949"/>
<path d="M91.7375 106.414C92.6234 107.03 93.7085 107.463 94.522 108.188C96.1074 109.602 96.4611 111.92 96.5712 114.041C96.6692 115.93 97.5394 117.589 97.3848 119.564C97.2809 120.891 96.7528 122.243 95.6961 123.052C94.3805 124.059 92.2792 124.272 91.7204 125.832C91.1137 127.527 92.9062 129.596 91.8881 131.08C91.3262 131.899 90.1886 132.046 89.3697 132.608C88.4559 133.235 88.006 134.323 87.4625 135.289C86.9196 136.255 86.0916 137.23 84.985 137.282C84.8969 135.598 84.8129 134.265 85.4934 132.706C85.8894 131.799 87.0809 130.111 86.1083 129.164C85.4898 128.372 84.0721 128.145 84.0101 127.142C83.9809 126.671 84.2996 126.261 84.5495 125.86C85.5149 124.31 85.5653 122.275 84.8407 120.598C84.1162 118.921 82.6778 117.604 81.0139 116.849C79.0636 115.966 79.362 115.487 78.7552 113.657C78.1965 111.973 77.2234 111.6 75.6794 111.021C74.2933 110.5 73.8438 110.165 73.3049 108.894C72.9102 107.964 72.4252 106.851 72.9358 105.789C73.3417 104.944 74.095 104.329 74.825 103.742C76.3501 102.516 78.0662 101.225 80.0205 101.315C81.106 101.366 82.1385 101.848 83.2244 101.883C83.949 101.905 84.6641 101.726 85.3877 101.684C86.6211 101.611 87.9331 101.953 88.9512 102.662C89.9787 103.378 89.9702 104.155 90.5572 105.193C90.8449 105.701 91.2624 106.084 91.7375 106.414Z" fill="#292949"/>
<path d="M87.1924 99.6006C86.9726 98.4319 87.0553 96.8997 88.1655 96.4749C88.7741 96.2421 89.4686 96.4623 90.1032 96.3162C91.4562 96.0047 91.8773 94.3462 92.5601 93.1371C92.6626 92.9559 92.7848 92.7721 92.9722 92.6826C93.2406 92.555 93.5548 92.6543 93.8505 92.6826C95.2084 92.8134 96.2026 91.4515 97.4652 90.9346C99.0276 90.2945 101.038 91.2304 101.555 92.8377C101.767 93.498 101.751 94.214 101.951 94.8783C102.763 97.5685 106.761 98.6203 106.933 101.425C107.049 103.321 105.239 105.186 106.006 106.924C106.496 108.035 107.96 108.764 107.826 109.971C107.739 110.747 106.929 111.296 106.147 111.305C105.366 111.314 104.638 110.903 104.036 110.404C103.081 109.613 102.351 108.584 101.44 107.744C100.528 106.903 99.3234 106.233 98.0972 106.418C96.9092 106.597 95.8547 107.552 94.6654 107.384C93.7143 107.249 92.9898 106.422 92.0531 106.208C91.1766 106.007 90.2803 106.372 89.3849 106.45C88.4891 106.527 87.3753 106.088 87.3286 105.19C87.3173 104.973 87.3726 104.746 87.2989 104.541C87.0926 103.967 86.1042 104.026 85.9015 103.45C86.3514 102.716 87.0184 102.958 87.3299 102.007C87.5709 101.27 87.3304 100.335 87.1924 99.6006Z" fill="#292949"/>
<path d="M42.5484 108.36L43.7229 113.684C44.1045 115.413 45.781 116.513 47.4679 116.141L61.1096 113.131C62.7965 112.759 63.8546 111.056 63.473 109.326L62.2985 104.002L42.5484 108.36Z" fill="#373434"/>
<path d="M69.731 27.399C65.599 8.66924 47.4387 -3.24691 29.1701 0.783562C10.9011 4.81404 -0.559037 23.2651 3.57315 41.9949C5.04151 48.6508 8.2827 54.445 12.6695 58.9699H12.6681C25.3612 72.7519 30.4106 85.5265 30.4106 85.5265L47.0562 81.8543L63.7017 78.182C63.7017 78.182 62.907 64.4684 68.6231 46.625L68.6217 46.6255C70.697 40.6744 71.1995 34.0545 69.731 27.399Z" fill="#E6E6E6"/>
<path d="M30.0272 85.611L35.0169 108.227C35.2254 109.172 36.1235 109.777 37.0234 109.579L67.823 102.784C68.7228 102.585 69.2833 101.658 69.0748 100.714L64.0851 78.0975L30.0272 85.611Z" fill="#9D9999"/>
<path d="M67.7425 21.1791C63.0563 39.8734 52.4783 69.4895 30.3747 85.4384C30.3963 85.491 30.4106 85.5265 30.4106 85.5265L47.0562 81.8543L63.7017 78.182C63.7017 78.182 62.9071 64.4684 68.6231 46.625L68.6217 46.6255C70.697 40.6744 71.1995 34.0545 69.731 27.399C69.2519 25.2276 68.5768 23.1528 67.7425 21.1791Z" fill="#383333"/>
<path d="M9.59415 43.5919C5.98655 27.2398 15.9917 11.1319 31.9411 7.61292C41.2638 5.55611 50.5527 8.25747 57.3834 14.1214C50.4385 6.34628 39.7733 2.43312 29.0654 4.79559C13.1159 8.31456 3.11073 24.4225 6.71834 40.7741C8.21726 47.568 11.8315 53.3334 16.6871 57.5015C13.2879 53.6962 10.7797 48.9649 9.59415 43.5919Z" fill="#4F4E53"/>
<path d="M40.6237 83.2733L27.0391 40.7472L33.673 44.2756L36.7991 35.2878L43.4267 41.8588L47.9129 36.0987L53.4887 80.4353L55.1972 80.0582L49.113 31.6808L43.2482 39.2109L36.0579 32.0817L32.6936 41.7532L24.0654 37.164L38.9152 83.6504L40.6237 83.2733Z" fill="black"/>
<path d="M37.5605 79.4096L38.9152 83.6504L40.6237 83.2733L38.9503 78.0351C38.4932 78.4989 38.0306 78.9574 37.5605 79.4096Z" fill="#EDECED"/>
<path d="M51.1927 62.18L53.4887 80.4352L55.1972 80.058L52.6428 59.7466C52.1708 60.5624 51.6876 61.3737 51.1927 62.18Z" fill="#4F4E53"/>
<path d="M66.2453 87.8894L32.1879 95.4033L31.266 91.2268L65.3239 83.7128L66.2453 87.8894Z" fill="#242427"/>
<path d="M68.2132 96.8088L34.1557 104.322L33.2338 100.146L67.2917 92.6322L68.2132 96.8088Z" fill="#242427"/>
<path d="M51.9061 96.0267L67.2917 92.6323L66.2453 87.8894L56.7546 89.9835C55.1661 92.2219 53.5386 94.2279 51.9061 96.0267Z" fill="#4F4B47"/>
<path d="M65.3239 83.7128L64.0852 78.0975L63.5494 78.2153C62.4342 80.6015 61.2638 82.8179 60.0524 84.8761L65.3239 83.7128Z" fill="#4F4B47"/>
<path d="M37.0234 109.579L67.823 102.784C68.7229 102.585 69.2834 101.658 69.0748 100.713L68.2132 96.8088L45.9747 101.715C41.9784 105.032 38.2033 107.22 35.1688 108.642C35.5127 109.338 36.2651 109.746 37.0234 109.579Z" fill="#4F4B47"/>
<path d="M56.7546 89.9835L66.2453 87.8894L65.3239 83.7128L60.0524 84.8761C58.9799 86.6983 57.8774 88.4005 56.7546 89.9835Z" fill="#373434"/>
<path d="M45.9747 101.715L68.2131 96.8088L67.2917 92.6322L51.9061 96.0267C49.9171 98.2179 47.9201 100.1 45.9747 101.715Z" fill="#373434"/>
<path d="M63.0118 107.236C60.007 111.875 52.9021 114.646 50.5329 115.464L61.1096 113.131C62.7965 112.759 63.8545 111.056 63.4729 109.326L63.0118 107.236Z" fill="#3A3635"/>
<path d="M40.9473 145.011L24.8623 135.034L5.9788 173.622C5.10461 175.355 5.67275 177.451 7.28912 178.453L25.9428 190.023C27.5592 191.025 29.6892 190.603 30.8538 189.05L57.0328 154.988L40.9473 145.011Z" fill="#E6E6E6"/>
<path d="M5.70209 176.318C5.93806 177.182 6.48306 177.954 7.28911 178.453L25.9428 190.023C27.5592 191.025 29.6892 190.604 30.8538 189.05L57.0283 154.993L5.70209 176.318Z" fill="#9D9999"/>
<path d="M24.8623 135.034L55.6588 156.628L59.3229 151.992L24.8623 135.034Z" fill="#32302C"/>
<path d="M19.5737 145.522L49.9864 164.385L34.8443 183.728L8.97382 167.682L19.5737 145.522Z" fill="#FFF500"/>
<path d="M23.6415 134.388L57.9983 155.697L60.0753 152.348L25.7185 131.039L23.6415 134.388Z" fill="#292949"/>
<path d="M59.7958 144.241C59.7899 143.609 59.4663 143.028 58.9364 142.699L46.9807 135.284L35.0255 127.868C34.4951 127.54 33.8312 127.508 33.2612 127.784L27.8266 132.346L42.9749 141.742L58.1233 151.137L59.7958 144.241Z" fill="#FFF500"/>
<path d="M24.1647 169.61C24.2982 169.55 24.4366 169.488 24.5769 169.469C25.8853 169.289 26.6755 169.979 27.979 170.164C28.5601 170.246 29.5499 169.106 30.0655 170.219C30.2556 170.629 30.5801 171.702 30.977 172.581C31.5564 173.864 33.0653 175.139 34.4506 175.93C39.8924 179.04 46.0296 180.582 52.1483 181.917C52.4971 181.993 52.8626 182.067 53.2073 181.974C53.824 181.807 54.175 181.176 54.4695 180.608C55.835 177.977 57.445 175.473 59.273 173.138C60.9037 171.055 62.7646 169.065 65.1342 167.888C67.5034 166.713 70.4758 166.477 72.7376 167.848C74.4317 168.875 75.5734 170.76 75.6983 172.737C76.0076 177.64 69.5809 180.833 66.2301 183.383C63.0603 185.796 59.7216 187.987 56.2453 189.933C55.8161 190.173 55.3702 190.414 54.8812 190.466C54.3598 190.522 53.8429 190.357 53.3449 190.194C46.933 188.084 40.7433 185.421 34.5755 182.619C32.8805 181.849 31.8058 180.286 30.2322 179.588C29.2281 179.142 28.1197 179.515 27.0791 179.305C26.0498 179.096 24.7513 178.56 23.8721 177.988C22.138 176.858 22.018 174.723 21.7294 172.869C21.6575 172.407 21.6081 172.096 21.7505 171.682C21.9829 171.008 22.5587 170.626 23.1161 170.226C23.4464 169.989 23.797 169.777 24.1647 169.61Z" fill="#D39689"/>
<path d="M88.8519 160.248C88.9157 160.057 88.9881 159.867 89.0492 159.676C91.8086 151.029 82.3389 144.415 74.9553 149.155C71.4975 151.374 69.1764 154.944 66.9618 158.405C64.184 162.75 61.7142 167.289 58.9633 171.65C54.6497 178.49 47.4891 177.914 40.2974 176.24C38.8712 179.673 37.1573 182.986 35.1796 186.133C40.3378 188.507 45.5531 190.9 51.1168 192.034C56.6804 193.168 62.708 192.945 67.7196 190.276C71.6665 188.173 74.7077 184.73 77.525 181.256C82.5906 175.012 87.3565 168.121 88.8519 160.248Z" fill="#FFF500"/>
</g>
<defs>
<clipPath id="clip0_30_119">
<rect width="500" height="325.005" fill="white"/>
</clipPath>
</defs>
</svg>
